<svg xmlns="http://www.w3.org/2000/svg" xml:space="preserve" style="fill-rule:evenodd;clip-rule:evenodd;stroke-linejoin:round;stroke-miterlimit:2" viewBox="0 0 6613 4155">
  <path d="m925.754 104.737 958.889 2763.41a14881.42 14881.42 0 0 1 185.326-253.586 19216.687 19216.687 0 0 0 319.62-443.697c-146.154-162.308-272.424-322.613-378.956-480.798a147.402 147.402 0 0 1-5.106-8.142c-300.833-516.322-298.248-930.077-37.953-1239.44a148.52 148.52 0 0 1 4.424-5.023C2241.595 145.053 2566.158.022 2944.63.022c378.178 0 703.555 144.845 975.014 437.026a148.111 148.111 0 0 1 5.191 5.894c258.053 309.237 259.605 722.88-41.102 1238.99a147.305 147.305 0 0 1-4.527 7.276c-105.217 158.634-230.928 319.405-377.301 482.181a16006.325 16006.325 0 0 0 317.387 443.181 18239.94 18239.94 0 0 1 187.268 255.246l956.907-2764.96c20.57-59.437 76.552-99.302 139.447-99.302h638.775a147.563 147.563 0 0 1 139.451 195.814l-1332.86 3852.01c-20.567 59.44-76.552 99.31-139.451 99.31h-572.408a147.562 147.562 0 0 1-120.523-62.422 44584.59 44584.59 0 0 0-429.382-597.295 25129.646 25129.646 0 0 1-340.977-464.297 50334.715 50334.715 0 0 1-339.768 466.69c-.204.276-.408.552-.614.826a27222.336 27222.336 0 0 0-431.805 594.076 147.562 147.562 0 0 1-120.523 62.422h-569.643c-62.864 0-118.826-39.826-139.42-99.221L8.146 201.457A147.564 147.564 0 0 1 147.566 5.553H786.34c62.851 0 118.805 39.81 139.409 99.188Zm1938.07 1101.21.037.06c25.083 38.281 52.107 76.729 81.061 115.351 28.688-38.777 55.617-77.379 80.803-115.853 35.056-58.109 59.712-110.058 72.187-156.665 9.489-35.448 14.696-64.877-1.863-87.032-38.389-51.358-88.649-77.664-151.42-77.664-62.253 0-111.907 25.959-149.464 76.893-16.61 22.525-11.558 52.435-2.092 88.476 12.224 46.547 36.381 98.433 70.751 156.434Z" style="fill:currentColor" />
  <path d="M6101.18 3133.06c142.859 0 263.489 50.365 362.192 150.367 98.438 99.733 147.62 219.558 147.62 359.444 0 139.886-49.182 259.711-147.62 359.445-98.703 100.001-219.333 150.367-362.192 150.367-140.638 0-260.458-50.097-359.426-150.367-98.438-99.734-147.62-219.559-147.62-359.445s49.182-259.711 147.62-359.444c98.968-100.271 218.788-150.367 359.426-150.367Z" style="fill:currentColor" />
</svg>